<?xml version="1.0" encoding="UTF-8" standalone="no"?>
<svg
   xmlns:dc="http://purl.org/dc/elements/1.1/"
   xmlns:cc="http://creativecommons.org/ns#"
   xmlns:rdf="http://www.w3.org/1999/02/22-rdf-syntax-ns#"
   xmlns:svg="http://www.w3.org/2000/svg"
   xmlns="http://www.w3.org/2000/svg"
   xmlns:xlink="http://www.w3.org/1999/xlink"
   height="136"
   width="712"
   xml:space="preserve"
   viewBox="0 0 711.99998 136"
   y="0px"
   x="0px"
   id="Layer_1"
   version="1.1"><metadata
     id="metadata25"><rdf:RDF><cc:Work
         rdf:about=""><dc:format>image/svg+xml</dc:format><dc:type
           rdf:resource="http://purl.org/dc/dcmitype/StillImage" /><dc:title></dc:title></cc:Work></rdf:RDF></metadata><defs
     id="defs23" /><style
     id="style2"
     type="text/css">
	.st0{fill:#7BAFD4;}
	.st1{fill:#003DA5;}
	.st2{clip-path:url(#SVGID_2_);}
</style><g
     transform="translate(-70.899999,-219)"
     id="g18"><polygon
       style="fill:#7bafd4"
       id="polygon4"
       points="178.7,219.6 159.1,259.3 229.4,240.7 "
       class="st0" /><polygon
       style="fill:#003da5"
       id="polygon6"
       points="178.7,219.6 71.8,279.4 112.4,353.8 "
       class="st1" /><g
       id="g16"><defs
         id="defs9"><rect
           height="134.8"
           width="710.20001"
           y="219.60001"
           x="71.800003"
           id="SVGID_1_" /></defs><clipPath
         id="SVGID_2_"><use
           height="100%"
           width="100%"
           y="0"
           x="0"
           id="use11"
           style="overflow:visible"
           xlink:href="#SVGID_1_" /></clipPath><path
         id="path14"
         clip-path="url(#SVGID_2_)"
         d="m 756.5,342.6 c -2.1,0 -4,-0.5 -5.7,-1.6 -1.8,-1.1 -3.2,-2.5 -4.2,-4.4 -1.1,-1.9 -1.6,-4 -1.6,-6.2 0,-3.4 1.1,-6.3 3.4,-8.6 2.3,-2.3 5,-3.4 8.1,-3.4 2.8,0 5.2,0.6 7.3,1.9 2.1,1.3 3.5,3 4.3,5.1 V 336 c -1.2,2.2 -2.7,3.8 -4.6,4.9 -1.8,1.2 -4.2,1.7 -7,1.7 m 11.7,-67.9 v 38.1 c -1.7,-1.7 -3.8,-3 -6.4,-3.9 -2.5,-0.9 -5.2,-1.3 -8.1,-1.3 -4.4,0 -8.4,0.9 -11.8,2.7 -3.4,1.8 -6.1,4.5 -8.1,8 -2,3.5 -2.9,7.6 -2.9,12.4 0,4.8 0.9,9 2.7,12.6 1.8,3.6 4.3,6.3 7.5,8.3 3.2,1.9 6.8,2.9 10.8,2.9 5.7,0 11.1,-1.9 16.1,-5.8 v 4.6 h 14 v -78.4 h -13.8 z m -62.8,32.9 c -3.8,0 -7.2,0.8 -10,2.4 -2.8,1.6 -5,3.8 -6.6,6.7 l -1,-7 h -12.6 v 43.4 h 13.9 v -17.7 c 0,-4.7 1,-8.6 2.9,-11.5 1.9,-3 4.5,-4.5 7.7,-4.5 4,0 6.2,2.1 6.4,6.4 v 27.3 H 720 v -32.5 c -0.1,-3.8 -1.5,-6.9 -4.2,-9.3 -2.8,-2.4 -6.2,-3.7 -10.4,-3.7 m -69,35.4 c -2.1,0 -4,-0.5 -5.7,-1.6 -1.8,-1.1 -3.2,-2.5 -4.2,-4.4 -1.1,-1.9 -1.6,-4 -1.6,-6.2 0,-3.4 1.1,-6.3 3.2,-8.6 2.2,-2.3 4.8,-3.4 7.8,-3.4 2.6,0 5,0.6 6.9,1.9 2,1.3 3.3,3 4.1,5.1 v 10.6 c -2.1,4.4 -5.6,6.6 -10.5,6.6 m 11.6,-33.3 -0.9,4.5 c -1.7,-2.1 -3.7,-3.8 -6,-4.9 -2.3,-1.2 -5.3,-1.7 -9.1,-1.7 -3.7,0 -7.2,1 -10.4,3 -3.2,2 -5.9,4.8 -7.8,8.4 -2,3.6 -2.9,7.8 -2.9,12.6 0,7.6 2,13.3 6,17.1 4,3.8 9.2,5.8 15.7,5.8 5.5,0 10.3,-2.2 14.5,-6.6 v 5.4 H 661 v -43.4 h -13 z m -62.1,43.5 h 13.9 v -78.4 h -13.9 z m -28.8,-45.6 c -3.8,0 -7.2,0.8 -10,2.4 -2.8,1.6 -5,3.8 -6.6,6.7 l -1,-7 h -12.6 v 43.4 h 13.9 v -17.7 c 0,-4.7 1,-8.6 2.9,-11.5 1.9,-3 4.5,-4.5 7.7,-4.5 4,0 6.2,2.1 6.4,6.4 v 27.3 h 13.9 v -32.5 c -0.1,-3.8 -1.5,-6.9 -4.2,-9.3 -2.9,-2.4 -6.3,-3.7 -10.4,-3.7 m -58.8,-13.3 c 0,2 0.8,3.6 2.3,5 1.6,1.3 3.3,2 5.3,2 1.9,0 3.6,-0.7 5.2,-2 1.5,-1.3 2.3,-3 2.3,-5 0,-2 -0.8,-3.7 -2.3,-5 -1.5,-1.4 -3.2,-2 -5.2,-2 -2,0 -3.8,0.7 -5.3,2 -1.5,1.3 -2.3,3 -2.3,5 m 0.3,58.9 h 13.9 V 309.8 H 498.6 Z M 441.3,280 v 73.2 h 14.4 v -28.7 h 27.1 V 310.6 H 455.7 V 294 H 487 v -14 z m -29.5,39.7 -1.1,-9.9 h -12.5 v 43.4 H 412 v -17 c 0,-2.4 0.6,-4.7 1.7,-7 1.1,-2.3 2.8,-4.2 4.9,-5.6 2.1,-1.5 4.6,-2.2 7.4,-2.2 0.7,0 1.3,0 1.7,0.1 l 0.7,-13.9 c -1.3,0 -3,0.5 -5.2,1.5 -2.2,1 -4.3,2.5 -6.4,4.3 -2.1,1.9 -3.8,3.9 -5,6.3 m -48,-1.2 c 4.5,0 7.5,2.1 8.8,6.2 l -19.1,6.5 v -0.9 c 0,-3.6 0.9,-6.4 2.8,-8.6 1.9,-2.2 4.4,-3.2 7.5,-3.2 m 1.1,24 c -3.6,0 -6.5,-1.2 -8.7,-3.7 L 388,328.7 c -1.2,-6.8 -3.8,-12 -7.8,-15.6 -4,-3.6 -9.1,-5.5 -15.4,-5.5 -4.6,0 -8.8,1 -12.6,3.1 -3.8,2.1 -6.9,4.9 -9.1,8.5 -2.2,3.6 -3.3,7.5 -3.3,11.7 0,4.6 1,8.6 2.9,12.2 1.9,3.5 4.8,6.3 8.5,8.3 3.7,2 8.2,2.9 13.4,2.9 2.4,0 4.9,-0.4 7.6,-1.2 2.7,-0.8 5.2,-1.9 7.6,-3.2 l -6.2,-10.3 c -3,2 -5.9,2.9 -8.7,2.9 m -56.8,-51.9 v 18.9 h -6.8 v 10.8 h 6.8 v 32.8 H 322 v -32.8 h 10.5 V 309.5 H 322 v -18.9 z m -32.9,17 c -3.8,0 -7.2,0.8 -10,2.4 -2.8,1.6 -5,3.8 -6.6,6.7 l -1,-7 H 245 v 43.4 h 13.9 v -17.7 c 0,-4.7 1,-8.6 2.9,-11.5 1.9,-3 4.5,-4.5 7.7,-4.5 4,0 6.2,2.1 6.4,6.4 v 27.3 h 13.9 v -32.5 c -0.1,-3.8 -1.5,-6.9 -4.2,-9.3 -2.8,-2.4 -6.3,-3.7 -10.4,-3.7 M 181.1,280 v 73.2 h 51.3 v -13.9 h -36.9 v -15.8 h 31.4 V 309.6 H 195.5 V 294 H 231 v -14 z"
         class="st2" /></g></g></svg>