<?xml version="1.0" encoding="UTF-8" standalone="no"?>
<svg
   xmlns:dc="http://purl.org/dc/elements/1.1/"
   xmlns:cc="http://creativecommons.org/ns#"
   xmlns:rdf="http://www.w3.org/1999/02/22-rdf-syntax-ns#"
   xmlns:svg="http://www.w3.org/2000/svg"
   xmlns="http://www.w3.org/2000/svg"
   height="186"
   width="568"
   id="svg18"
   xml:space="preserve"
   viewBox="0 0 567.99998 186"
   y="0px"
   x="0px"
   version="1.1"><metadata
     id="metadata24"><rdf:RDF><cc:Work
         rdf:about=""><dc:format>image/svg+xml</dc:format><dc:type
           rdf:resource="http://purl.org/dc/dcmitype/StillImage" /><dc:title></dc:title></cc:Work></rdf:RDF></metadata><defs
     id="defs22" /><style
     id="style2"
     type="text/css">
	.st0{display:none;}
	.st1{display:inline;}
	.st2{fill:#FFFFFF;}
</style><g
     transform="translate(0,-409.29999)"
     style="display:none"
     class="st0"
     id="Layer_2"><rect
       style="display:inline"
       id="rect4"
       height="594"
       width="842.40002"
       class="st1"
       y="0.69999999"
       x="0.69999999" /></g><g
     transform="translate(-148.64999,-204.5)"
     id="Layer_1"><g
       id="g13"><path
         style="fill:#ffffff"
         id="path7"
         d="m 708.3,372.2 c 1.5,0 2.4,0.7 2.9,2 l -6.2,2.1 V 376 c 0,-1.2 0.3,-2.1 0.9,-2.8 0.5,-0.7 1.3,-1 2.4,-1 m 0.3,7.8 c -1.2,0 -2.1,-0.4 -2.8,-1.2 l 10.3,-3.3 c -0.4,-2.2 -1.2,-3.9 -2.5,-5.1 -1.3,-1.2 -3,-1.8 -5,-1.8 -1.5,0 -2.8,0.3 -4.1,1 -1.3,0.7 -2.2,1.6 -2.9,2.8 -0.7,1.2 -1.1,2.4 -1.1,3.8 0,1.5 0.3,2.8 0.9,3.9 0.6,1.2 1.5,2 2.8,2.7 1.2,0.6 2.7,1 4.3,1 0.8,0 1.6,-0.1 2.4,-0.4 0.9,-0.3 1.7,-0.6 2.4,-1 l -2,-3.4 c -0.9,0.6 -1.8,1 -2.7,1 m -10.5,2.1 -2.3,-2.8 c -0.6,0.5 -1.5,0.8 -2.4,0.8 -1.1,0 -2.1,-0.4 -2.8,-1.1 -0.7,-0.7 -1.1,-1.6 -1.1,-2.7 0,-1.1 0.3,-2 1,-2.7 0.7,-0.7 1.5,-1.1 2.4,-1.1 1.1,0 2.2,0.4 3.1,1.1 l 2.2,-2.9 c -1.5,-1.2 -3.4,-1.9 -5.7,-1.9 -1.3,0 -2.5,0.3 -3.7,0.9 -1.1,0.6 -2.1,1.4 -2.8,2.6 -0.7,1.1 -1,2.4 -1,3.9 0,2.3 0.7,4.1 2.1,5.5 1.4,1.3 3.4,2 5.8,2 0.9,0 1.8,-0.1 2.8,-0.5 1,-0.2 1.8,-0.6 2.4,-1.1 m -21.2,-17.8 c 0,0.6 0.3,1.2 0.8,1.6 0.5,0.4 1.1,0.6 1.7,0.6 0.6,0 1.2,-0.2 1.7,-0.6 0.5,-0.4 0.7,-1 0.7,-1.6 0,-0.6 -0.2,-1.2 -0.7,-1.6 -0.5,-0.4 -1.1,-0.7 -1.7,-0.7 -0.6,0 -1.2,0.2 -1.7,0.7 -0.5,0.4 -0.8,1 -0.8,1.6 m 0.1,19.1 h 4.5 V 369.3 H 677 Z m -7.7,-14.1 -2.9,6.7 -3.3,-6.7 h -5.3 l 8.4,14.4 h 0.1 l 8,-14.4 z m -18.3,3.2 -0.4,-3.2 h -4.1 v 14.1 h 4.5 v -5.5 c 0,-0.8 0.2,-1.5 0.5,-2.3 0.4,-0.7 0.9,-1.3 1.6,-1.8 0.7,-0.5 1.5,-0.7 2.4,-0.7 0.2,0 0.4,0 0.5,0 l 0.2,-4.5 c -0.4,0 -1,0.2 -1.7,0.5 -0.7,0.3 -1.4,0.8 -2.1,1.4 -0.5,0.6 -1,1.3 -1.4,2 m -15.6,-0.3 c 1.5,0 2.4,0.7 2.9,2 l -6.2,2.1 V 376 c 0,-1.2 0.3,-2.1 0.9,-2.8 0.6,-0.7 1.4,-1 2.4,-1 m 0.4,7.8 c -1.2,0 -2.1,-0.4 -2.8,-1.2 l 10.3,-3.3 c -0.4,-2.2 -1.2,-3.9 -2.5,-5.1 -1.3,-1.2 -3,-1.8 -5,-1.8 -1.5,0 -2.8,0.3 -4.1,1 -1.2,0.7 -2.2,1.6 -2.9,2.8 -0.7,1.2 -1.1,2.4 -1.1,3.8 0,1.5 0.3,2.8 0.9,3.9 0.6,1.2 1.5,2 2.8,2.7 1.3,0.7 2.7,1 4.3,1 0.8,0 1.6,-0.1 2.4,-0.4 0.9,-0.3 1.7,-0.6 2.4,-1 l -2,-3.4 c -0.9,0.6 -1.8,1 -2.7,1 m -12.4,-14.6 1.8,-3.6 c -1.1,-0.7 -2.3,-1.3 -3.4,-1.7 -1.2,-0.4 -2.7,-0.6 -4.4,-0.6 -2.2,0.1 -4,0.8 -5.4,2 -1.3,1.2 -2,2.9 -2,4.9 0,1.4 0.3,2.6 1,3.5 0.7,0.9 1.4,1.6 2.3,2.1 0.9,0.5 2,1 3.4,1.5 2.3,0.9 3.4,2 3.4,3.2 0,0.9 -0.4,1.6 -1.1,2 -0.7,0.4 -1.6,0.6 -2.6,0.6 -0.8,0 -1.8,-0.2 -2.8,-0.6 -1.1,-0.4 -2,-0.9 -2.8,-1.5 l -2.1,3.6 c 1.2,0.9 2.5,1.5 3.9,1.9 1.4,0.4 2.8,0.6 4.2,0.6 1.7,0 3.2,-0.3 4.4,-0.9 1.2,-0.6 2.2,-1.4 2.8,-2.5 0.6,-1 1,-2.2 1,-3.4 0,-1.4 -0.3,-2.6 -0.8,-3.5 -0.5,-0.9 -1.2,-1.6 -2,-2.2 -0.8,-0.5 -1.8,-1 -2.9,-1.4 -1.4,-0.5 -2.5,-1.1 -3.3,-1.6 -0.8,-0.6 -1.2,-1.2 -1.2,-2 0,-0.8 0.3,-1.4 0.9,-1.8 0.6,-0.4 1.4,-0.6 2.4,-0.6 1.4,0.3 3.2,0.9 5.3,2 m -33.2,3.2 c -1.2,0 -2.3,0.3 -3.2,0.8 -0.9,0.5 -1.6,1.2 -2.1,2.2 l -0.3,-2.3 h -4.1 v 14.1 h 4.5 v -5.7 c 0,-1.5 0.3,-2.8 0.9,-3.7 0.6,-1 1.4,-1.5 2.5,-1.5 1.3,0 2,0.7 2.1,2.1 v 8.9 H 595 V 373 c 0,-1.2 -0.5,-2.2 -1.4,-3 -1,-1 -2.1,-1.4 -3.4,-1.4 m -24.8,7.6 c 0,-1.1 0.3,-2 1,-2.8 0.6,-0.7 1.5,-1.1 2.4,-1.1 1,0 1.9,0.4 2.5,1.1 0.6,0.7 1,1.7 1,2.8 0,1.1 -0.3,2.1 -1,2.8 -0.6,0.7 -1.5,1.1 -2.5,1.1 -1,0 -1.8,-0.4 -2.4,-1.1 -0.7,-0.7 -1,-1.7 -1,-2.8 m -4.5,0 c 0,1.6 0.3,2.9 1,4.1 0.7,1.1 1.6,2 2.8,2.6 1.2,0.6 2.6,0.9 4.2,0.9 1.6,0 3,-0.3 4.2,-1 1.2,-0.7 2.1,-1.6 2.8,-2.7 0.6,-1.2 1,-2.5 1,-3.9 0,-1.4 -0.3,-2.7 -1,-3.9 -0.6,-1.1 -1.6,-2 -2.8,-2.7 -1.2,-0.7 -2.6,-1 -4.1,-1 -1.5,0 -3,0.3 -4.2,1 -1.2,0.7 -2.2,1.6 -2.9,2.7 -0.7,1.2 -1,2.4 -1,3.9 m -8.2,-11.9 c 0,0.6 0.3,1.2 0.8,1.6 0.5,0.4 1.1,0.6 1.7,0.6 0.6,0 1.2,-0.2 1.7,-0.6 0.5,-0.4 0.7,-1 0.7,-1.6 0,-0.6 -0.2,-1.2 -0.7,-1.6 -0.5,-0.4 -1.1,-0.7 -1.7,-0.7 -0.6,0 -1.2,0.2 -1.7,0.7 -0.5,0.4 -0.8,1 -0.8,1.6 m 0.1,19.1 h 4.5 v -14.1 h -4.5 z m -11.4,-20.3 v 6.1 h -2.2 v 3.5 h 2.2 v 10.6 h 4.5 v -10.6 h 3.4 v -3.5 h -3.4 v -6.1 z m -13.9,17 c -0.7,0 -1.3,-0.2 -1.9,-0.5 -0.6,-0.3 -1,-0.8 -1.4,-1.4 -0.3,-0.6 -0.5,-1.3 -0.5,-2 0,-1.1 0.3,-2 1,-2.8 0.7,-0.7 1.5,-1.1 2.5,-1.1 0.9,0 1.6,0.2 2.2,0.6 0.6,0.4 1.1,1 1.3,1.6 v 3.4 c -0.5,1.5 -1.6,2.2 -3.2,2.2 m 3.8,-10.8 -0.3,1.5 c -0.6,-0.7 -1.2,-1.2 -1.9,-1.6 -0.7,-0.4 -1.7,-0.6 -3,-0.6 -1.2,0 -2.3,0.3 -3.4,1 -1.1,0.7 -1.9,1.6 -2.5,2.7 -0.6,1.2 -1,2.5 -1,4.1 0,2.4 0.6,4.3 2,5.5 1.3,1.2 3,1.9 5.1,1.9 1.8,0 3.4,-0.7 4.7,-2.1 v 1.7 h 4.5 v -14.1 z m -19.3,3.2 -0.4,-3.2 h -4.1 v 14.1 h 4.5 v -5.5 c 0,-0.8 0.2,-1.5 0.5,-2.3 0.4,-0.7 0.9,-1.3 1.6,-1.8 0.7,-0.5 1.5,-0.7 2.4,-0.7 0.2,0 0.4,0 0.5,0 l 0.2,-4.5 c -0.4,0 -1,0.2 -1.7,0.5 -0.7,0.3 -1.4,0.8 -2.1,1.4 -0.5,0.6 -1,1.3 -1.4,2 m -17.5,7.6 c -1.1,0 -2,-0.4 -2.8,-1.1 -0.8,-0.8 -1.1,-1.7 -1.1,-2.8 0,-1.1 0.4,-2 1.1,-2.8 0.8,-0.7 1.7,-1.1 2.8,-1.1 0.9,0 1.7,0.2 2.4,0.6 0.7,0.4 1.2,1 1.5,1.6 v 3.4 c -0.8,1.5 -2.1,2.2 -3.9,2.2 m 4.3,-10.8 -0.4,1.1 c -0.5,-0.5 -1.2,-1 -2.1,-1.3 -0.9,-0.3 -1.9,-0.5 -3.1,-0.5 -1.2,0 -2.4,0.3 -3.5,1 -1.1,0.7 -2,1.6 -2.7,2.8 -0.7,1.2 -1,2.5 -1,3.9 0,1.4 0.3,2.7 1,3.8 0.6,1.2 1.5,2.1 2.6,2.7 1.1,0.7 2.3,1 3.5,1 1.3,0 2.4,-0.2 3.3,-0.7 0.9,-0.5 1.6,-1 2,-1.8 v 2 c 0,1 -0.4,1.8 -1.2,2.4 -0.8,0.6 -1.7,0.9 -2.9,0.9 -1,0 -1.8,-0.2 -2.4,-0.5 -0.6,-0.3 -1.3,-0.8 -1.9,-1.4 l -2.6,3.1 c 0.7,0.6 1.4,1.1 1.9,1.4 0.5,0.3 1.2,0.7 2.1,0.9 0.9,0.3 1.9,0.4 3,0.4 1.5,0 2.9,-0.3 4.2,-0.9 1.3,-0.6 2.3,-1.5 3.1,-2.5 0.8,-1.1 1.1,-2.3 1.1,-3.6 v -14.1 h -4 z m -20.9,-5 c 0,0.6 0.3,1.2 0.8,1.6 0.5,0.4 1.1,0.6 1.7,0.6 0.6,0 1.2,-0.2 1.7,-0.6 0.5,-0.4 0.7,-1 0.7,-1.6 0,-0.6 -0.2,-1.2 -0.7,-1.6 -0.5,-0.4 -1.1,-0.7 -1.7,-0.7 -0.6,0 -1.2,0.2 -1.7,0.7 -0.5,0.4 -0.8,1 -0.8,1.6 m 0.1,19.1 h 4.5 V 369.3 H 478 Z m -9.2,-14.8 c -0.9,0 -1.7,0.2 -2.6,0.7 -0.8,0.5 -1.5,1.2 -2.1,2 -0.3,-0.9 -0.8,-1.6 -1.5,-2 -0.7,-0.4 -1.7,-0.7 -2.8,-0.7 -2.3,0 -4,1 -5.1,2.9 l -0.3,-2.2 h -4.1 v 14.1 h 4.5 v -5.8 c 0,-1.3 0.3,-2.5 0.9,-3.5 0.6,-1 1.4,-1.5 2.4,-1.5 0.6,0 1,0.2 1.2,0.6 0.2,0.4 0.3,0.9 0.4,1.6 v 8.7 h 4.5 v -5.8 c 0,-1.4 0.3,-2.6 0.9,-3.6 0.6,-1 1.4,-1.5 2.5,-1.5 0.6,0 0.9,0.2 1.1,0.6 0.2,0.4 0.3,0.9 0.4,1.6 v 8.7 h 4.5 v -10.6 c 0,-1.3 -0.5,-2.3 -1.3,-3.1 -1,-0.8 -2.1,-1.2 -3.5,-1.2 m -27.8,0 c -0.9,0 -1.7,0.2 -2.6,0.7 -0.8,0.5 -1.5,1.2 -2.1,2 -0.3,-0.9 -0.8,-1.6 -1.5,-2 -0.7,-0.5 -1.7,-0.7 -2.8,-0.7 -2.3,0 -4,1 -5.1,2.9 l -0.3,-2.2 h -4.1 v 14.1 h 4.5 v -5.8 c 0,-1.3 0.3,-2.5 0.9,-3.5 0.6,-1 1.4,-1.5 2.4,-1.5 0.6,0 1,0.2 1.2,0.6 0.2,0.4 0.3,0.9 0.4,1.6 v 8.7 h 4.5 v -5.8 c 0,-1.4 0.3,-2.6 0.9,-3.6 0.6,-1 1.4,-1.5 2.5,-1.5 0.6,0 0.9,0.2 1.1,0.6 0.2,0.4 0.3,0.9 0.4,1.6 v 8.7 h 4.5 v -10.6 c 0,-1.3 -0.5,-2.3 -1.3,-3.1 -1,-0.8 -2.1,-1.2 -3.5,-1.2 m -28.6,14.8 h 4.7 v -23.7 h -4.7 z m -20.6,-14.8 c -1.2,0 -2.3,0.3 -3.2,0.8 -0.9,0.5 -1.6,1.2 -2.1,2.1 V 358 H 382 v 25.4 h 4.5 v -5.7 c 0,-1.5 0.3,-2.8 0.9,-3.7 0.6,-1 1.5,-1.5 2.5,-1.5 1.3,0 2,0.7 2.1,2.1 v 8.9 h 4.5 V 373 c 0,-1.2 -0.5,-2.2 -1.4,-3 -0.9,-1 -2,-1.4 -3.3,-1.4 m -19.6,15.1 c 1.3,0 2.4,-0.2 3.3,-0.7 0.9,-0.5 1.6,-1.1 2,-1.8 0.5,-0.8 0.7,-1.6 0.7,-2.5 0,-1.9 -1.1,-3.3 -3.3,-4 -0.1,0 -0.3,-0.1 -0.4,-0.1 -0.1,0 -0.3,-0.1 -0.4,-0.1 -0.8,-0.2 -1.5,-0.5 -1.9,-0.7 -0.4,-0.2 -0.6,-0.6 -0.6,-1 0,-0.3 0.2,-0.6 0.5,-0.8 0.3,-0.2 0.7,-0.3 1.3,-0.3 0.4,0 0.9,0.1 1.4,0.3 0.5,0.2 1,0.5 1.4,0.9 l 1.7,-2.6 c -0.8,-0.5 -1.5,-0.9 -2.4,-1.2 -0.8,-0.2 -1.8,-0.4 -3,-0.4 -1.2,0 -2.3,0.2 -3.1,0.7 -0.8,0.5 -1.5,1.1 -1.9,1.8 -0.4,0.7 -0.6,1.5 -0.6,2.2 0,1 0.3,1.9 0.9,2.6 0.6,0.8 1.5,1.3 2.7,1.7 0.2,0 0.5,0.1 1,0.3 0.5,0.1 1,0.3 1.4,0.6 0.4,0.2 0.6,0.6 0.6,1 0,0.4 -0.2,0.6 -0.5,0.8 -0.4,0.2 -0.8,0.3 -1.4,0.3 -1.1,0 -2.3,-0.6 -3.5,-1.7 l -1.9,2.5 c 0.7,0.7 1.5,1.3 2.5,1.7 1.2,0.3 2.3,0.5 3.5,0.5 m -13.8,-19.4 c 0,0.6 0.3,1.2 0.8,1.6 0.5,0.4 1.1,0.6 1.7,0.6 0.6,0 1.2,-0.2 1.7,-0.6 0.5,-0.4 0.7,-1 0.7,-1.6 0,-0.6 -0.2,-1.2 -0.7,-1.6 -0.5,-0.4 -1.1,-0.7 -1.7,-0.7 -0.6,0 -1.2,0.2 -1.7,0.7 -0.6,0.4 -0.8,1 -0.8,1.6 m 0,19.1 h 4.5 v -14.1 h -4.5 z m -9.3,-14.8 c -1.2,0 -2.3,0.3 -3.2,0.8 -0.9,0.5 -1.6,1.2 -2.1,2.2 l -0.3,-2.3 h -4.1 v 14.1 h 4.5 v -5.7 c 0,-1.5 0.3,-2.8 0.9,-3.7 0.6,-1 1.4,-1.5 2.5,-1.5 1.3,0 2,0.7 2.1,2.1 v 8.9 h 4.5 V 373 c 0,-1.2 -0.5,-2.2 -1.4,-3 -1,-1 -2.1,-1.4 -3.4,-1.4 m -19.1,0 c -1.2,0 -2.3,0.3 -3.2,0.8 -0.9,0.5 -1.6,1.2 -2.1,2.2 l -0.3,-2.3 h -4.1 v 14.1 h 4.5 v -5.7 c 0,-1.5 0.3,-2.8 0.9,-3.7 0.6,-1 1.5,-1.5 2.5,-1.5 1.3,0 2,0.7 2.1,2.1 v 8.9 h 4.5 V 373 c 0,-1.2 -0.5,-2.2 -1.4,-3 -1,-1 -2.1,-1.4 -3.4,-1.4 m -19.1,-4.3 c 0,0.6 0.3,1.2 0.8,1.6 0.5,0.4 1.1,0.6 1.7,0.6 0.6,0 1.2,-0.2 1.7,-0.6 0.5,-0.4 0.7,-1 0.7,-1.6 0,-0.6 -0.2,-1.2 -0.7,-1.6 -0.5,-0.4 -1.1,-0.7 -1.7,-0.7 -0.6,0 -1.2,0.2 -1.7,0.7 -0.5,0.4 -0.8,1 -0.8,1.6 m 0.1,19.1 h 4.5 V 369.3 H 311 Z m -18.6,-23.7 v 23.7 h 4.7 v -9.3 h 8.8 v -4.5 h -8.8 v -5.4 h 10.2 v -4.5 z"
         class="st2" /><path
         style="fill:#ffffff"
         id="path9"
         d="m 542.3,325.9 v 6.1 h -2.2 v 3.5 h 2.2 v 10.6 h 4.5 v -10.6 h 3.4 V 332 h -3.4 v -6.1 z m -12.5,9.1 c 1.5,0 2.4,0.7 2.9,2 l -6.2,2.1 v -0.3 c 0,-1.2 0.3,-2.1 0.9,-2.8 0.6,-0.7 1.4,-1 2.4,-1 m 0.3,7.8 c -1.2,0 -2.1,-0.4 -2.8,-1.2 l 10.3,-3.3 c -0.4,-2.2 -1.2,-3.9 -2.5,-5.1 -1.3,-1.2 -3,-1.8 -5,-1.8 -1.5,0 -2.8,0.3 -4.1,1 -1.2,0.7 -2.2,1.6 -2.9,2.8 -0.7,1.2 -1.1,2.4 -1.1,3.8 0,1.5 0.3,2.8 0.9,3.9 0.6,1.2 1.5,2 2.8,2.7 1.2,0.6 2.7,1 4.3,1 0.8,0 1.6,-0.1 2.4,-0.4 0.9,-0.3 1.7,-0.6 2.4,-1 l -2,-3.4 c -0.8,0.7 -1.8,1 -2.7,1 m -15,3.4 h 5.3 l -5.5,-8.3 5,-3.8 -2.7,-2.4 -6.7,4.9 V 320.7 H 506 v 25.4 h 4.5 v -4.9 l 1.3,-0.9 z m -18,-10.8 -0.4,-3.2 h -4.1 v 14.1 h 4.5 v -5.5 c 0,-0.8 0.2,-1.5 0.5,-2.3 0.4,-0.7 0.9,-1.3 1.6,-1.8 0.7,-0.5 1.5,-0.7 2.4,-0.7 0.2,0 0.4,0 0.5,0 l 0.2,-4.5 c -0.4,0 -1,0.2 -1.7,0.5 -0.7,0.3 -1.4,0.8 -2.1,1.4 -0.5,0.5 -1.1,1.2 -1.4,2 M 481.5,335 c 1.5,0 2.4,0.7 2.9,2 l -6.2,2.1 v -0.3 c 0,-1.2 0.3,-2.1 0.9,-2.8 0.6,-0.7 1.4,-1 2.4,-1 m 0.3,7.8 c -1.2,0 -2.1,-0.4 -2.8,-1.2 l 10.3,-3.3 c -0.4,-2.2 -1.2,-3.9 -2.5,-5.1 -1.3,-1.2 -3,-1.8 -5,-1.8 -1.5,0 -2.8,0.3 -4.1,1 -1.2,0.7 -2.2,1.6 -2.9,2.8 -0.7,1.2 -1.1,2.4 -1.1,3.8 0,1.5 0.3,2.8 0.9,3.9 0.6,1.2 1.5,2 2.8,2.7 1.2,0.6 2.7,1 4.3,1 0.8,0 1.6,-0.1 2.4,-0.4 0.9,-0.3 1.7,-0.6 2.4,-1 l -2,-3.4 c -0.8,0.7 -1.8,1 -2.7,1 m -14.2,-10.7 -2.9,6.7 -3.3,-6.7 h -5.3 l 8.4,14.4 h 0.1 l 8,-14.4 z m -19.3,14.4 c 1.3,0 2.4,-0.2 3.3,-0.7 0.9,-0.5 1.6,-1.1 2,-1.8 0.5,-0.8 0.7,-1.6 0.7,-2.5 0,-1.9 -1.1,-3.3 -3.3,-4 -0.2,0 -0.3,-0.1 -0.4,-0.1 -0.1,0 -0.3,-0.1 -0.4,-0.1 -0.8,-0.2 -1.5,-0.5 -1.9,-0.7 -0.4,-0.2 -0.6,-0.6 -0.6,-1 0,-0.3 0.2,-0.6 0.5,-0.8 0.3,-0.2 0.7,-0.3 1.3,-0.3 0.4,0 0.9,0.1 1.4,0.3 0.5,0.2 1,0.5 1.4,0.9 l 1.7,-2.6 c -0.8,-0.5 -1.5,-0.9 -2.4,-1.2 -0.8,-0.2 -1.8,-0.4 -3,-0.4 -1.2,0 -2.3,0.2 -3.1,0.7 -0.8,0.5 -1.5,1.1 -1.9,1.8 -0.4,0.7 -0.6,1.5 -0.6,2.2 0,1 0.3,1.9 0.9,2.6 0.6,0.8 1.5,1.3 2.7,1.7 0.2,0 0.5,0.1 1,0.3 0.5,0.2 1,0.3 1.4,0.6 0.4,0.2 0.6,0.6 0.6,1 0,0.4 -0.2,0.6 -0.5,0.8 -0.4,0.2 -0.8,0.3 -1.4,0.3 -1.1,0 -2.3,-0.6 -3.5,-1.7 l -1.9,2.5 c 0.7,0.7 1.5,1.3 2.5,1.7 1.2,0.3 2.3,0.5 3.5,0.5 m -14,-15 c -1.2,0 -2.3,0.3 -3.2,0.8 -0.9,0.5 -1.6,1.2 -2.1,2.2 l -0.3,-2.3 h -4.1 v 14.1 h 4.5 v -5.7 c 0,-1.5 0.3,-2.8 0.9,-3.7 0.6,-1 1.4,-1.5 2.5,-1.5 1.3,0 2,0.7 2.1,2.1 v 8.9 h 4.5 v -10.5 c 0,-1.2 -0.5,-2.2 -1.4,-3 -0.9,-1 -2,-1.4 -3.4,-1.4 m -24.7,7.5 c 0,-1.1 0.3,-2 1,-2.8 0.6,-0.7 1.5,-1.1 2.4,-1.1 1,0 1.9,0.4 2.5,1.1 0.6,0.7 1,1.7 1,2.8 0,1.1 -0.3,2.1 -1,2.8 -0.6,0.7 -1.5,1.1 -2.5,1.1 -1,0 -1.8,-0.4 -2.4,-1.1 -0.7,-0.7 -1,-1.7 -1,-2.8 m -4.6,0 c 0,1.6 0.3,2.9 1,4.1 0.7,1.1 1.6,2 2.8,2.6 1.2,0.6 2.6,0.9 4.2,0.9 1.6,0 3,-0.3 4.2,-1 1.2,-0.7 2.1,-1.6 2.8,-2.7 0.6,-1.2 1,-2.5 1,-3.9 0,-1.4 -0.3,-2.7 -1,-3.9 -0.6,-1.1 -1.6,-2 -2.8,-2.7 -1.2,-0.7 -2.6,-1 -4.1,-1 -1.6,0 -3,0.3 -4.2,1 -1.2,0.7 -2.2,1.6 -2.9,2.7 -0.6,1.2 -1,2.5 -1,3.9 m -8.1,-11.9 c 0,0.6 0.3,1.2 0.8,1.6 0.5,0.4 1.1,0.6 1.7,0.6 0.6,0 1.2,-0.2 1.7,-0.6 0.5,-0.4 0.7,-1 0.7,-1.6 0,-0.6 -0.2,-1.2 -0.7,-1.6 -0.5,-0.4 -1.1,-0.7 -1.7,-0.7 -0.6,0 -1.2,0.2 -1.7,0.7 -0.6,0.5 -0.8,1 -0.8,1.6 m 0.1,19.1 h 4.5 V 332.1 H 397 Z m -11.4,-20.3 v 6.1 h -2.2 v 3.5 h 2.2 v 10.6 h 4.5 v -10.6 h 3.4 V 332 h -3.4 v -6.1 z m -13.9,17 c -0.7,0 -1.3,-0.2 -1.9,-0.5 -0.6,-0.3 -1,-0.8 -1.4,-1.4 -0.3,-0.6 -0.5,-1.3 -0.5,-2 0,-1.1 0.3,-2 1,-2.8 0.7,-0.7 1.5,-1.1 2.5,-1.1 0.9,0 1.6,0.2 2.2,0.6 0.6,0.4 1.1,1 1.3,1.6 v 3.4 c -0.5,1.5 -1.6,2.2 -3.2,2.2 m 3.8,-10.8 -0.3,1.5 c -0.6,-0.7 -1.2,-1.2 -1.9,-1.6 -0.7,-0.4 -1.7,-0.6 -3,-0.6 -1.2,0 -2.3,0.3 -3.4,1 -1.1,0.6 -1.9,1.6 -2.5,2.7 -0.6,1.2 -1,2.5 -1,4.1 0,2.4 0.7,4.3 2,5.5 1.3,1.2 3,1.9 5.1,1.9 1.8,0 3.4,-0.7 4.7,-2.1 v 1.7 h 4.5 v -14.1 z m -19.3,3.3 -0.4,-3.2 h -4.1 v 14.1 h 4.5 v -5.5 c 0,-0.8 0.2,-1.5 0.5,-2.3 0.4,-0.7 0.9,-1.3 1.6,-1.8 0.7,-0.5 1.5,-0.7 2.4,-0.7 0.2,0 0.4,0 0.5,0 l 0.2,-4.5 c -0.4,0 -1,0.2 -1.7,0.5 -0.7,0.3 -1.4,0.8 -2.1,1.4 -0.5,0.5 -1,1.2 -1.4,2 m -17.5,7.5 c -1.1,0 -2,-0.4 -2.8,-1.1 -0.8,-0.8 -1.1,-1.7 -1.1,-2.8 0,-1.1 0.4,-2 1.1,-2.8 0.8,-0.7 1.7,-1.1 2.8,-1.1 0.9,0 1.7,0.2 2.4,0.6 0.7,0.4 1.2,1 1.5,1.6 v 3.4 c -0.8,1.5 -2.1,2.2 -3.9,2.2 m 4.3,-10.8 -0.4,1.1 c -0.5,-0.5 -1.2,-1 -2.1,-1.3 -0.9,-0.3 -1.9,-0.5 -3.1,-0.5 -1.2,0 -2.4,0.3 -3.5,1 -1.1,0.7 -2,1.6 -2.7,2.8 -0.7,1.2 -1,2.5 -1,3.9 0,1.4 0.3,2.7 1,3.8 0.6,1.1 1.5,2.1 2.6,2.7 1.1,0.7 2.3,1 3.5,1 1.3,0 2.4,-0.2 3.3,-0.7 0.9,-0.5 1.6,-1 2,-1.8 v 2 c 0,1 -0.4,1.8 -1.2,2.4 -0.8,0.6 -1.7,0.9 -2.9,0.9 -1,0 -1.8,-0.2 -2.4,-0.5 -0.6,-0.3 -1.3,-0.8 -1.9,-1.4 l -2.6,3.1 c 0.7,0.6 1.4,1.1 1.9,1.4 0.5,0.3 1.2,0.7 2.1,0.9 0.9,0.3 1.9,0.4 3,0.4 1.5,0 2.9,-0.3 4.2,-0.9 1.3,-0.6 2.3,-1.5 3.1,-2.5 0.8,-1.1 1.1,-2.3 1.1,-3.6 v -14.1 h -4 z m -20.9,-5 c 0,0.6 0.3,1.2 0.8,1.6 0.5,0.4 1.1,0.6 1.7,0.6 0.6,0 1.2,-0.2 1.7,-0.6 0.5,-0.4 0.7,-1 0.7,-1.6 0,-0.6 -0.2,-1.2 -0.7,-1.6 -0.5,-0.4 -1.1,-0.7 -1.7,-0.7 -0.6,0 -1.2,0.2 -1.7,0.7 -0.5,0.5 -0.8,1 -0.8,1.6 m 0.1,19.1 h 4.5 v -14.1 h -4.5 z m -5.4,-24.7 -12.3,17 -12,-17 v 0 24.7 h 4.5 v -10.6 l 7.4,10.3 h 0.1 l 7.7,-11 v 11.3 h 4.7 z"
         class="st2" /><path
         style="fill:#ffffff"
         id="path11"
         d="m 618.1,301.8 c 0,-1.1 0.3,-2 1,-2.8 0.6,-0.7 1.5,-1.1 2.4,-1.1 1,0 1.9,0.4 2.5,1.1 0.6,0.7 1,1.7 1,2.8 0,1.1 -0.3,2.1 -1,2.8 -0.6,0.7 -1.5,1.1 -2.5,1.1 -1,0 -1.8,-0.4 -2.4,-1.1 -0.7,-0.7 -1,-1.6 -1,-2.8 m -4.6,0 c 0,1.6 0.3,2.9 1,4.1 0.7,1.1 1.6,2 2.8,2.6 1.2,0.6 2.6,0.9 4.2,0.9 1.6,0 3,-0.3 4.2,-1 1.2,-0.7 2.1,-1.6 2.8,-2.7 0.7,-1.1 1,-2.5 1,-3.9 0,-1.4 -0.3,-2.7 -1,-3.9 -0.6,-1.1 -1.6,-2 -2.8,-2.7 -1.2,-0.7 -2.6,-1 -4.1,-1 -1.6,0 -3,0.3 -4.2,1 -1.2,0.7 -2.2,1.6 -2.9,2.7 -0.6,1.2 -1,2.5 -1,3.9 m -10.3,-13 v 6.1 H 601 v 3.5 h 2.2 V 309 h 4.5 v -10.6 h 3.4 v -3.5 h -3.4 v -6.1 z m -11.1,20.5 c 1.3,0 2.4,-0.2 3.3,-0.7 0.9,-0.5 1.6,-1.1 2,-1.8 0.5,-0.8 0.7,-1.6 0.7,-2.5 0,-1.9 -1.1,-3.3 -3.3,-4 -0.1,0 -0.3,-0.1 -0.4,-0.1 -0.1,0 -0.3,-0.1 -0.4,-0.1 -0.8,-0.2 -1.5,-0.5 -1.9,-0.7 -0.4,-0.2 -0.6,-0.6 -0.6,-1 0,-0.3 0.2,-0.6 0.5,-0.8 0.3,-0.2 0.7,-0.3 1.3,-0.3 0.4,0 0.9,0.1 1.4,0.3 0.5,0.2 1,0.5 1.4,0.9 l 1.7,-2.6 c -0.8,-0.5 -1.5,-0.9 -2.4,-1.2 -0.8,-0.2 -1.8,-0.4 -3,-0.4 -1.2,0 -2.3,0.2 -3.1,0.7 -0.8,0.5 -1.5,1.1 -1.9,1.8 -0.4,0.7 -0.6,1.5 -0.6,2.2 0,1 0.3,1.9 0.9,2.6 0.6,0.8 1.5,1.3 2.7,1.7 0.2,0 0.5,0.1 1,0.3 0.5,0.1 1,0.3 1.4,0.6 0.4,0.2 0.6,0.6 0.6,1 0,0.4 -0.2,0.6 -0.5,0.8 -0.4,0.2 -0.8,0.3 -1.4,0.3 -1.1,0 -2.3,-0.6 -3.5,-1.7 l -1.9,2.5 c 0.7,0.7 1.5,1.3 2.5,1.7 1.2,0.3 2.3,0.5 3.5,0.5 m -17.2,-3.6 c -0.7,0 -1.3,-0.2 -1.9,-0.5 -0.6,-0.3 -1,-0.8 -1.4,-1.4 -0.3,-0.6 -0.5,-1.3 -0.5,-2 0,-1.1 0.3,-2 1,-2.8 0.7,-0.7 1.5,-1.1 2.5,-1.1 0.9,0 1.6,0.2 2.2,0.6 0.6,0.4 1.1,1 1.3,1.6 v 3.4 c -0.5,1.5 -1.6,2.2 -3.2,2.2 m 3.8,-10.8 -0.3,1.5 c -0.6,-0.7 -1.2,-1.2 -1.9,-1.6 -0.7,-0.4 -1.7,-0.6 -3,-0.6 -1.2,0 -2.3,0.3 -3.4,1 -1.1,0.6 -1.9,1.6 -2.5,2.7 -0.6,1.2 -1,2.5 -1,4.1 0,2.4 0.7,4.3 2,5.5 1.3,1.2 3,1.9 5.1,1.9 1.8,0 3.4,-0.7 4.7,-2.1 v 1.7 h 4.5 v -14.1 z m -19.3,3.3 -0.4,-3.2 h -4 v 14 h 4.5 v -5.5 c 0,-0.8 0.2,-1.5 0.5,-2.3 0.4,-0.7 0.9,-1.3 1.6,-1.8 0.7,-0.5 1.5,-0.7 2.4,-0.7 0.2,0 0.4,0 0.5,0 l 0.2,-4.5 c -0.4,0 -1,0.2 -1.7,0.5 -0.7,0.3 -1.4,0.8 -2.1,1.4 -0.6,0.6 -1.1,1.3 -1.5,2.1 M 545.7,290 c 0,0.6 0.3,1.2 0.8,1.6 0.5,0.4 1.1,0.6 1.7,0.6 0.6,0 1.2,-0.2 1.7,-0.6 0.5,-0.4 0.7,-1 0.7,-1.6 0,-0.6 -0.2,-1.2 -0.7,-1.6 -0.5,-0.4 -1.1,-0.7 -1.7,-0.7 -0.6,0 -1.2,0.2 -1.7,0.7 -0.5,0.4 -0.8,0.9 -0.8,1.6 m 0.1,19 h 4.5 v -14 h -4.5 z m -7.6,-14.1 -2.9,6.7 -3.3,-6.7 h -5.3 l 8.4,14.4 h 0.1 l 8,-14.4 z m -24,6.9 c 0,-1.1 0.3,-2 1,-2.8 0.6,-0.7 1.5,-1.1 2.4,-1.1 1,0 1.9,0.4 2.5,1.1 0.6,0.7 1,1.7 1,2.8 0,1.1 -0.3,2.1 -1,2.8 -0.6,0.7 -1.5,1.1 -2.5,1.1 -1,0 -1.8,-0.4 -2.4,-1.1 -0.7,-0.7 -1,-1.6 -1,-2.8 m -4.6,0 c 0,1.6 0.3,2.9 1,4.1 0.7,1.1 1.6,2 2.8,2.6 1.2,0.6 2.6,0.9 4.2,0.9 1.6,0 3,-0.3 4.2,-1 1.2,-0.7 2.1,-1.6 2.8,-2.7 0.7,-1.1 1,-2.5 1,-3.9 0,-1.4 -0.3,-2.7 -1,-3.9 -0.6,-1.1 -1.6,-2 -2.8,-2.7 -1.2,-0.7 -2.6,-1 -4.1,-1 -1.6,0 -3,0.3 -4.2,1 -1.2,0.7 -2.2,1.6 -2.9,2.7 -0.6,1.2 -1,2.5 -1,3.9 m -10.3,-13 v 6.1 h -2.2 v 3.5 h 2.2 V 309 h 4.5 v -10.6 h 3.4 v -3.5 h -3.4 v -6.1 z m -12.7,0 v 6.1 h -2.2 v 3.5 h 2.2 V 309 h 4.5 v -10.6 h 3.4 v -3.5 h -3.4 v -6.1 z m -10.4,6.1 v 5.7 c 0,1.5 -0.3,2.8 -0.9,3.7 -0.6,1 -1.4,1.5 -2.4,1.5 -1.2,0 -1.8,-0.7 -1.9,-2.1 v -8.9 h -4.5 v 10.5 c 0,1.2 0.5,2.2 1.3,3 0.9,0.8 1.9,1.2 3.2,1.2 1.2,0 2.3,-0.3 3.1,-0.8 0.8,-0.5 1.6,-1.2 2.1,-2.1 l 0.3,2.3 h 4.1 v -14.1 h -4.4 z m -18.8,0 v 5.7 c 0,1.5 -0.3,2.8 -0.9,3.7 -0.6,1 -1.4,1.5 -2.4,1.5 -1.2,0 -1.8,-0.7 -1.9,-2.1 v -8.9 h -4.5 v 10.5 c 0,1.2 0.5,2.2 1.3,3 0.9,0.8 1.9,1.2 3.2,1.2 1.2,0 2.3,-0.3 3.1,-0.8 0.9,-0.5 1.6,-1.2 2.1,-2.1 l 0.3,2.3 h 4.1 v -14.1 h -4.4 z m -19,-0.7 c -0.9,0 -1.7,0.2 -2.6,0.7 -0.8,0.5 -1.5,1.2 -2.1,2 -0.3,-0.9 -0.8,-1.6 -1.5,-2 -0.7,-0.5 -1.7,-0.7 -2.8,-0.7 -2.3,0 -4,1 -5.1,2.9 l -0.3,-2.2 h -4.1 V 309 h 4.5 v -5.8 c 0,-1.3 0.3,-2.5 0.9,-3.5 0.6,-1 1.4,-1.5 2.4,-1.5 0.6,0 1,0.2 1.2,0.6 0.2,0.4 0.3,0.9 0.4,1.6 v 8.7 h 4.5 v -5.8 c 0,-1.4 0.3,-2.6 0.9,-3.6 0.6,-1 1.4,-1.5 2.5,-1.5 0.6,0 0.9,0.2 1.1,0.6 0.2,0.4 0.3,0.9 0.4,1.6 v 8.7 h 4.5 v -10.6 c 0,-1.3 -0.5,-2.3 -1.3,-3.1 -1,-0.8 -2.1,-1.2 -3.5,-1.2 m -27.9,0.1 c -1.2,0 -2.3,0.3 -3.2,0.8 -0.9,0.5 -1.6,1.2 -2.1,2.2 l -0.3,-2.3 h -4.1 v 14 h 4.5 v -5.7 c 0,-1.5 0.3,-2.8 0.9,-3.7 0.6,-1 1.4,-1.5 2.5,-1.5 1.3,0 2,0.7 2.1,2.1 v 8.9 h 4.5 v -10.5 c 0,-1.2 -0.5,-2.2 -1.4,-3 -0.9,-0.9 -2,-1.3 -3.4,-1.3 m -22.3,11.4 c -0.7,0 -1.3,-0.2 -1.9,-0.5 -0.6,-0.3 -1,-0.8 -1.4,-1.4 -0.3,-0.6 -0.5,-1.3 -0.5,-2 0,-1.1 0.3,-2 1,-2.8 0.7,-0.7 1.5,-1.1 2.5,-1.1 0.9,0 1.6,0.2 2.2,0.6 0.6,0.4 1.1,1 1.3,1.6 v 3.4 c -0.5,1.5 -1.7,2.2 -3.2,2.2 m 3.7,-10.8 -0.3,1.5 c -0.6,-0.7 -1.2,-1.2 -1.9,-1.6 -0.7,-0.4 -1.7,-0.6 -3,-0.6 -1.2,0 -2.3,0.3 -3.4,1 -1.1,0.6 -1.9,1.6 -2.5,2.7 -0.6,1.2 -1,2.5 -1,4.1 0,2.4 0.7,4.3 2,5.5 1.3,1.2 3,1.9 5.1,1.9 1.8,0 3.4,-0.7 4.7,-2.1 v 1.7 h 4.5 v -14.1 z m -20.3,-0.6 c -1.2,0 -2.3,0.3 -3.2,0.8 -0.9,0.5 -1.6,1.2 -2.1,2.1 v -13.6 h -4.4 V 309 h 4.5 v -5.7 c 0,-1.5 0.3,-2.8 0.9,-3.7 0.6,-1 1.4,-1.5 2.5,-1.5 1.3,0 2,0.7 2.1,2.1 v 8.9 h 4.5 v -10.5 c 0,-1.2 -0.5,-2.2 -1.4,-3 -1,-0.9 -2.1,-1.3 -3.4,-1.3 m -22.4,11.4 c -0.7,0 -1.3,-0.2 -1.9,-0.5 -0.6,-0.3 -1,-0.8 -1.4,-1.4 -0.3,-0.6 -0.5,-1.3 -0.5,-2 0,-1.1 0.3,-2 1,-2.8 0.7,-0.7 1.5,-1.1 2.5,-1.1 0.9,0 1.6,0.2 2.2,0.6 0.6,0.4 1.1,1 1.3,1.6 v 3.4 c -0.5,1.5 -1.6,2.2 -3.2,2.2 m 3.8,-10.8 -0.3,1.5 c -0.6,-0.7 -1.2,-1.2 -1.9,-1.6 -0.7,-0.4 -1.7,-0.6 -3,-0.6 -1.2,0 -2.3,0.3 -3.4,1 -1.1,0.6 -1.9,1.6 -2.5,2.7 -0.6,1.2 -1,2.5 -1,4.1 0,2.4 0.7,4.3 2,5.5 1.3,1.2 3,1.9 5.1,1.9 1.8,0 3.4,-0.7 4.7,-2.1 v 1.7 h 4.5 v -14.1 z m -23.6,10.8 c -0.7,0 -1.3,-0.2 -1.9,-0.5 -0.6,-0.3 -1,-0.8 -1.4,-1.4 -0.3,-0.6 -0.5,-1.3 -0.5,-2 0,-1.1 0.3,-2 1,-2.8 0.7,-0.7 1.5,-1.1 2.5,-1.1 0.9,0 1.6,0.2 2.2,0.6 0.6,0.4 1.1,1 1.3,1.6 v 3.4 c -0.4,1.5 -1.6,2.2 -3.2,2.2 m 3.8,-10.8 -0.3,1.5 c -0.6,-0.7 -1.2,-1.2 -1.9,-1.6 -0.7,-0.4 -1.7,-0.6 -3,-0.6 -1.2,0 -2.3,0.3 -3.4,1 -1.1,0.6 -1.9,1.6 -2.5,2.7 -0.6,1.2 -1,2.5 -1,4.1 0,2.4 0.6,4.3 1.9,5.5 1.3,1.2 3,1.9 5.1,1.9 1.8,0 3.4,-0.7 4.7,-2.1 v 1.7 h 4.5 v -14.1 z m -16.4,-10.6 -12.3,17 -12,-17 v 0 24.7 h 4.5 v -10.6 l 7.4,10.3 h 0.1 l 7.7,-11 V 309 h 4.7 z"
         class="st2" /></g><path
       style="fill:#ffffff"
       id="path15"
       d="m 291.9,207.5 59.3,25.9 -82.2,21.3 z m 1.5,-3 -144.2,80.7 54.7,100.4 62.8,-126.2 95.1,-25.1 z"
       class="st2" /></g></svg>